PathFileType	4	(X/Y/Z)	51_2_30_p1_0-394.trc
DataRate	CameraRate	NumFrames	NumMarkers	Units	OrigDataRate	OrigDataStartFrame	OrigNumFrames
51.0	51.0	7	27	m	51.0	49	395
Frame#	Time	RHip			RKnee			RAnkle			RBigToe			RSmallToe			RHeel			LHip			LKnee			LAnkle			LBigToe			LSmallToe			LHeel			Neck			Head			Nose			RShoulder			RElbow			RWrist			RThumb			RIndex			RPinky			LShoulder			LElbow			LWrist			LThumb			LIndex			LPinky			
		X1	Y1	Z1	X2	Y2	Z2	X3	Y3	Z3	X4	Y4	Z4	X5	Y5	Z5	X6	Y6	Z6	X7	Y7	Z7	X8	Y8	Z8	X9	Y9	Z9	X10	Y10	Z10	X11	Y11	Z11	X12	Y12	Z12	X13	Y13	Z13	X14	Y14	Z14	X15	Y15	Z15	X16	Y16	Z16	X17	Y17	Z17	X18	Y18	Z18	X19	Y19	Z19	X20	Y20	Z20	X21	Y21	Z21	X22	Y22	Z22	X23	Y23	Z23	X24	Y24	Z24	X25	Y25	Z25	X26	Y26	Z26	X27	Y27	Z27	
49	0.9607843137254902	0.09321407044335298	0.51693321850293	0.6039167128181664	0.07614741431465152	0.5995034192985779	1.0528627639981258	0.06275801038290856	0.6898502109723568	1.4763044733026598	0.05174826899442144	0.46328403600492013	1.4784602952822339	0.11230158623703752	0.48478727070258737	1.4845590006706793	0.036724419489834965	0.7655189439537795	1.528010211206683	-0.10375919298467175	0.5031161206602334	0.6190691979602589	-0.11023687971309458	0.5918262963706628	1.043412376887304	-0.10974721722644581	0.6485233835256612	1.4520958119169358	-0.09270848273351875	0.465814615855821	1.4787616359837887	-0.14282640839057104	0.4840818546606947	1.4745745710030036	-0.10592024092991063	0.7201872756950564	1.530156258860556	0.0033747513617892124	0.4702800376921025	0.091826042696066	0.01917795522520509	0.3889107474552773	-0.128169849684347	0.0167464132293007	0.3568359336295672	-0.008364440475281454	0.14592222630706653	0.4653208023245159	0.16953879059890337	0.16836922552790068	0.48791011164446607	0.44242151726028783	0.05298882092129534	0.41146017967090825	0.6283619473718374	-0.007945940547407819	0.38657285191719	0.7010915537694621	-0.0123904727057943	0.40055867548787133	0.731796104139883	0.0011187009214063649	0.4159681599059918	0.7437708572380606	-0.1532608881737413	0.4950272164573557	0.17630659965041762	-0.16640927431813038	0.45273768692526106	0.43034855802360006	-0.05072182227893833	0.4151976424600887	0.6159863198313166	0.026592070789943818	0.3876095536294027	0.6790369136774932	0.02757755197010268	0.3916286229179587	0.7051111695531753	-0.004829725690122379	0.37179321988619674	0.7080911836783013
50	0.9803921568627451	0.08857206855587094	0.5316755619315814	0.6067717414268086	0.0761062254566957	0.5996425055807524	1.052882510424638	0.0596017843073704	0.6747550777343063	1.4695393070081002	0.05252673322446579	0.4651898832879731	1.4832109961767976	0.11230051688282217	0.48445713989822575	1.484419158526046	0.036681491453699366	0.7651331161035124	1.527770261602147	-0.10379118738766185	0.5030657037932386	0.618878380475131	-0.1102821509450691	0.5917057363990621	1.0433485784740635	-0.1097668200458148	0.6481854583815219	1.451770304850533	-0.09464146219891953	0.4519394636699632	1.4720223500911418	-0.14284991903148428	0.48385375026947125	1.4745820797282214	-0.10588023120568064	0.7203701674159595	1.5302119123483209	0.0033714190557594744	0.47018923319015804	0.09178871995965143	0.015590416066546665	0.3871097225522938	-0.12801767295360075	0.01674199553888988	0.3567366365001093	-0.00838295659332163	0.14584065727451223	0.4650795736679978	0.16948878673938972	0.1683569732985747	0.4877787639442184	0.442347684442772	0.05311579492446437	0.4113365408541602	0.6283358011147404	-0.007972694540315788	0.3863875974842558	0.700992776137656	-0.021098731768818033	0.41236421811244284	0.7348437030339601	0.001080959812627236	0.41593964201608363	0.7438475187941986	-0.15323041490841055	0.49501363940936455	0.17627348825784103	-0.16640145562455066	0.4527251698510366	0.4303178552575395	-0.05070585537838671	0.4150603480769436	0.6160150630669355	0.025752007897517675	0.38890820472067117	0.682741464408509	0.02730306949402502	0.39302108459219454	0.7057476376834625	-0.008826207005027372	0.37007628138197785	0.7120064111563265
51	1.0	0.08540730632350946	0.5188460474844556	0.6044330502276349	0.07613425953305376	0.599488630039229	1.0529177498512239	0.05961983056715988	0.6749602603205469	1.469647511475098	0.052599521828678525	0.4652138881083263	1.4832470085739562	0.11230937149564942	0.4844676937370519	1.484490333451304	0.03664740515851885	0.7649607745071864	1.5276943231336593	-0.10382117705834001	0.5032264594898253	0.6188984944993364	-0.10611572289087094	0.5938088610667955	1.0438728962280541	-0.1112492823068713	0.6503407279679982	1.4525038410928177	-0.09280345111790897	0.46610618952189725	1.4789426291695438	-0.14857778579653705	0.4993355925828146	1.4824837440975027	-0.10585749723954573	0.7204510272948822	1.5301681804928393	0.003367880445911341	0.47022523716033104	0.09185767452159226	0.019185764327709617	0.3889114383187811	-0.12815631101997604	0.01669186473866827	0.35678000710504854	-0.00825127236234561	0.14172237907838311	0.46330451450752264	0.16948723016869863	0.16837109736752193	0.487821170237538	0.4423319213172117	0.05312382043595789	0.4112364053500018	0.6282822791600269	-0.007769411736883077	0.3859967074363322	0.7009300485497201	-0.012160147100221855	0.39974089088065207	0.731314645927603	0.0010439708027971495	0.41588546634821977	0.7437831404291665	-0.1532386598708746	0.4949962225303992	0.17626215353053432	-0.1663867075914955	0.45262748562082744	0.43032254110871093	-0.05071868923686873	0.41499845129333784	0.6160452708652057	0.027756070755805867	0.4011456423444543	0.6856224246538465	0.028685504924381176	0.4050575422481412	0.7004714444690984	-0.008885600013789652	0.3699197214191683	0.7120469835498201
52	1.0196078431372548	0.08851786472946244	0.5317940729825347	0.6066997990155212	0.07619452762457653	0.6001471851397686	1.0526476049038742	0.06276324631941117	0.6897984643422792	1.4762900060183253	0.052529983943268625	0.46537687579417514	1.483442917734604	0.11227099993756846	0.4846350277059449	1.4846065992578208	0.036616695837652834	0.7651863253434741	1.5278334145266739	-0.10381840320386004	0.5034154662482827	0.6189158699150659	-0.10605619116860812	0.5937298474253332	1.0438464287216938	-0.110853886196066	0.6488123925753319	1.4564578500483873	-0.09263279677004578	0.4659690286509995	1.4788565696544564	-0.14280645570781567	0.4839877888968405	1.4747102953220879	-0.10605747632646469	0.7203377607112529	1.5305944509104992	0.0033470981174042306	0.47025014224280376	0.09184398272878518	0.01917966102298059	0.3888947540077232	-0.12816832095571862	0.01673529861725932	0.35684989543296564	-0.008313282491825943	0.14172553364967647	0.4633026707571494	0.16945403380139448	0.16833568308702854	0.4877792840409675	0.44235496066977553	0.053123249539230324	0.41146733895718507	0.6284083731987699	-0.0077394773408622	0.38605219148508546	0.7008516816457014	-0.015806305087783978	0.3991746230470539	0.7313357104814181	0.0010478413121743316	0.41583145959840134	0.7439346936401864	-0.1532679583213759	0.49503893509836494	0.17624753757663517	-0.16678961865830078	0.4526689577731932	0.43360523822885594	-0.05071938228328675	0.41503977926477265	0.6161570345018282	0.027925940596661477	0.40087528022979824	0.6853832270586397	0.02729781851898988	0.3937776684281363	0.7010786221671091	-0.00939037569461549	0.36998390045498236	0.7157143494002212
53	1.0392156862745099	0.08853464349583684	0.5316548572892343	0.6065628477964848	0.07611190770404437	0.5994851855731922	1.0530902312116128	0.05962340523786861	0.6747883131968408	1.4695879053404248	0.05248934409678776	0.4651739872753701	1.483344584483508	0.11218487824035221	0.48441888671446304	1.4846069197541245	0.03660200180155294	0.7647735503664216	1.5276006335968069	-0.10382737805103269	0.5032545710757136	0.6188754405547952	-0.1110154425872069	0.5918687429959226	1.0472389546671828	-0.11105353045871257	0.6490986985611787	1.4566782906323907	-0.09463741467060391	0.4524166649069749	1.4722483357085894	-0.14287421445238804	0.4839473158445085	1.4746698149318231	-0.10608463763525736	0.7206780372795578	1.5307368464420408	0.0033406157592539014	0.4701854334833162	0.09181721517212178	0.01917400427644365	0.3888563627039748	-0.12817238596815628	0.016730032670089656	0.35676927687739696	-0.008332325386425338	0.1456504982269847	0.450066545243516	0.16866409966081714	0.1683187730884996	0.48779131991838715	0.4424050650258727	0.05311938983179039	0.41155605840242004	0.6284885302669824	-0.007839698835586838	0.38565198587072047	0.7007764067744017	-0.01585865063632377	0.39877426608369587	0.7312234039589977	0.001068311611467258	0.41597549196716266	0.7439539353717617	-0.15326705620465583	0.49504844002006	0.1762588511396057	-0.1651186254698132	0.46473182796540036	0.4353214912735496	-0.05116343873576282	0.41504280535449994	0.6193852065594103	0.025545535951505986	0.3897094428054396	0.6832427713815772	0.027076161147986062	0.39414544187938816	0.7013707048141368	-0.005455402622920234	0.371718239674719	0.7160698200906501
54	1.0588235294117647	0.088575143435337	0.5319355247487032	0.6059489186066739	0.076238424556675	0.6002148950109254	1.0522402757964222	0.059748652316263307	0.6751228233348038	1.4697825123556032	0.05246920532862643	0.4649297423936441	1.48342950789544	0.11304041659834961	0.48602143361044764	1.4898272579385479	0.03772720544099668	0.7677675754746878	1.5336895074854882	-0.10417840190639294	0.5017379647370017	0.6143552552316852	-0.11008386850590882	0.5916634293359492	1.0430554376454937	-0.11041277322814869	0.6500375310705171	1.4481692714127736	-0.09440648606257578	0.4525843139188128	1.472343776393259	-0.14291068022761733	0.4840980145017082	1.4747415376548068	-0.10152419785978713	0.7260673287435748	1.5334590493972948	0.003350329368135466	0.4701977293233364	0.09171875316694038	0.01914338591735888	0.3887582289148497	-0.12814709322234216	0.016712151396090242	0.35670608941266563	-0.008334817314437139	0.14582876012317292	0.46524639842104304	0.16953405357179793	0.16845112827364883	0.48804092199322957	0.44226683581742904	0.05313353276170859	0.41114664106703436	0.6282043693008547	-0.007807033534195031	0.38594327095135433	0.7042087474452282	-0.012233511184121124	0.3999132685844671	0.731446135065412	0.006429748447878132	0.40295481208541456	0.7404899467179449	-0.14827158174195967	0.48258476232604125	0.175467426572601	-0.1669437424861133	0.4508428817752322	0.43002744714438845	-0.050627857472122145	0.41490437041091255	0.6161622683745412	0.025997309928420274	0.38840342567881864	0.6825193339795058	0.027273518397279952	0.39239591600588625	0.705754508754743	-0.0053410402377747235	0.37157782479276324	0.716206163128183
55	1.0784313725490196	0.08848979612317211	0.5318929027866552	0.6061554809612327	0.07625813973007245	0.6004685855401607	1.0523963430433028	0.06275738449880018	0.6907182554549012	1.476690434819783	0.053498872844543674	0.46510457609372213	1.4788113948737511	0.11236047912737133	0.48461061691649465	1.4844322187627326	0.03676872815275618	0.7658604791325192	1.528115811610624	-0.10421097752481417	0.501617307123558	0.6142773937304553	-0.11024958317046363	0.5918776634491277	1.0433248596617641	-0.11053634480023088	0.6499097901942164	1.4479400084535952	-0.09440207892880693	0.45290542877361156	1.4724368907350178	-0.14865123782788142	0.49893559174632235	1.4821988251294118	-0.10148958206335985	0.7269592490785944	1.5339186587160383	0.0033414480416005432	0.4702148118997498	0.09184009295916597	0.015574885659341444	0.38702900351004393	-0.12796630578577348	0.016702963578967972	0.3567610357872895	-0.008280204831875465	0.14584117361650206	0.4653061233857618	0.16958243266154244	0.16840476525073145	0.48784833034978886	0.44226124673061706	0.054017025096871986	0.41238414717349775	0.6366702486323236	-0.004591526815270718	0.386728697494669	0.7011582953115443	-0.008800430546333449	0.413544618349769	0.7393334774001591	0.011349419020929181	0.41243119858338734	0.7444800432489148	-0.15320643142946253	0.49504573991450945	0.17627684513957212	-0.1653088885466784	0.4630349942108059	0.4316668362885437	-0.0511644416087782	0.41495054882892707	0.6194823986382867	0.025825509203686894	0.38865419333087997	0.6826952840290301	0.027393340321127994	0.39265790147900226	0.7056571780698474	-0.008588132653623869	0.3714325966968888	0.7242597882645699
